<svg width="292" height="51" viewBox="0 0 292 51" fill="none" xmlns="http://www.w3.org/2000/svg">
<path d="M35.6301 0.00123467H3.63006C2.68059 0.00123467 1.77001 0.378377 1.09863 1.04976C0.427251 1.72114 0.0500628 2.63178 0.0500628 3.58125V35.5813C0.0487472 36.0522 0.140378 36.5188 0.319701 36.9543C0.499024 37.3898 0.762527 37.7857 1.09509 38.1192C1.42766 38.4526 1.82275 38.7172 2.25775 38.8978C2.69275 39.0783 3.15909 39.1712 3.63006 39.1712H35.6301C36.5822 39.1712 37.4953 38.793 38.1686 38.1198C38.8418 37.4465 39.2201 36.5334 39.2201 35.5813V3.58125C39.2201 3.11028 39.1271 2.64394 38.9466 2.20894C38.7661 1.77394 38.5015 1.37878 38.168 1.04622C37.8345 0.713653 37.4386 0.450211 37.0031 0.270888C36.5676 0.0915653 36.101 -8.09041e-05 35.6301 0.00123467ZM27.4801 29.6112C27.0122 29.611 26.5562 29.4643 26.176 29.1917C25.7958 28.9191 25.5105 28.5342 25.3601 28.0912L24.0201 24.9412H15.1901L13.7901 28.2412C13.632 28.6435 13.3569 28.9891 13.0004 29.2333C12.6438 29.4775 12.2222 29.6091 11.7901 29.6112C11.5223 29.6113 11.2572 29.5577 11.0106 29.4534C10.7639 29.3492 10.5407 29.1965 10.3542 29.0044C10.1677 28.8123 10.0216 28.5847 9.92474 28.335C9.82784 28.0854 9.78204 27.8189 9.79007 27.5512C9.80497 27.2032 9.89358 26.8624 10.0501 26.5512L17.0501 10.7713C17.2501 10.2511 17.6045 9.80455 18.0657 9.49171C18.5269 9.17888 19.0728 9.01474 19.6301 9.02125H19.8801C20.4338 9.01372 20.9763 9.17791 21.433 9.49129C21.8896 9.80466 22.2379 10.2518 22.4301 10.7713L29.4301 26.5512C29.5922 26.8673 29.6698 27.2199 29.6554 27.5748C29.641 27.9298 29.5351 28.275 29.3479 28.5769C29.1607 28.8788 28.8987 29.1272 28.5872 29.2979C28.2756 29.4686 27.9253 29.5559 27.5701 29.5512L27.4801 29.6112Z" fill="#F3F3F2"/>
<path d="M77.7502 0.00123467H45.7502C44.8007 0.00123467 43.8901 0.378377 43.2187 1.04976C42.5474 1.72114 42.1702 2.63178 42.1702 3.58125V35.5813C42.1689 36.0522 42.2605 36.5188 42.4398 36.9543C42.6191 37.3898 42.8826 37.7857 43.2152 38.1192C43.5478 38.4526 43.9429 38.7172 44.3779 38.8978C44.8129 39.0783 45.2792 39.1712 45.7502 39.1712H77.7502C78.2216 39.1712 78.6884 39.0784 79.124 38.898C79.5596 38.7175 79.9553 38.4531 80.2887 38.1198C80.6221 37.7864 80.8865 37.3906 81.0669 36.955C81.2473 36.5195 81.3402 36.0527 81.3402 35.5813V3.58125C81.3402 3.11028 81.2472 2.64394 81.0667 2.20894C80.8862 1.77394 80.6216 1.37878 80.2881 1.04622C79.9546 0.713653 79.5588 0.450211 79.1233 0.270888C78.6878 0.0915653 78.2212 -8.09041e-05 77.7502 0.00123467ZM69.7502 16.3812C69.7502 21.0212 66.1402 23.3812 61.6502 23.3812H58.2902V27.3812C58.2525 27.9404 58.0038 28.4643 57.5944 28.8471C57.1851 29.2298 56.6456 29.4426 56.0852 29.4426C55.5248 29.4426 54.9853 29.2298 54.5759 28.8471C54.1665 28.4643 53.9178 27.9404 53.8802 27.3812V11.5912C53.8788 11.3011 53.9352 11.0136 54.0459 10.7454C54.1566 10.4773 54.3195 10.2338 54.5251 10.0291C54.7307 9.82438 54.975 9.66261 55.2436 9.55311C55.5123 9.44362 55.8001 9.3886 56.0902 9.39125H62.0902C66.8702 9.39125 69.7602 12.2212 69.7602 16.3212L69.7502 16.3812Z" fill="#F3F3F2"/>
<path d="M119.87 0.0011318H87.8701C86.9346 0.022043 86.0444 0.408421 85.3902 1.07755C84.7361 1.74668 84.3699 2.64537 84.3701 3.58115V35.5812C84.3688 36.0521 84.4604 36.5187 84.6398 36.9542C84.8191 37.3897 85.0826 37.7856 85.4151 38.1191C85.7477 38.4525 86.1428 38.7171 86.5778 38.8977C87.0128 39.0782 87.4792 39.1711 87.9501 39.1711H119.95C120.902 39.1711 121.815 38.7929 122.489 38.1197C123.162 37.4464 123.54 36.5333 123.54 35.5812V3.58115C123.54 3.10335 123.445 2.63035 123.259 2.19004C123.074 1.74972 122.802 1.35094 122.46 1.01731C122.118 0.683669 121.713 0.421874 121.268 0.247348C120.823 0.0728215 120.348 -0.01088 119.87 0.0011318ZM112.25 16.0611C112.328 17.3728 111.981 18.6747 111.26 19.7735C110.54 20.8724 109.484 21.7096 108.25 22.1611L111.32 25.8911C111.758 26.347 112.011 26.9493 112.03 27.5811C112.03 27.8515 111.976 28.1192 111.87 28.3679C111.764 28.6166 111.608 28.8412 111.413 29.0281C111.218 29.2151 110.986 29.3605 110.733 29.4555C110.48 29.5506 110.21 29.5933 109.94 29.5811C109.513 29.5825 109.092 29.4792 108.714 29.2806C108.335 29.0819 108.011 28.7937 107.77 28.4411L103.47 22.9911H99.9401V27.3811C99.9025 27.9403 99.6538 28.4642 99.2444 28.847C98.835 29.2297 98.2955 29.4425 97.7351 29.4425C97.1747 29.4425 96.6352 29.2297 96.2259 28.847C95.8165 28.4642 95.5678 27.9403 95.5301 27.3811V11.5911C95.5288 11.301 95.5851 11.0135 95.6958 10.7453C95.8065 10.4772 95.9694 10.2337 96.1751 10.029C96.3807 9.82428 96.6249 9.66251 96.8936 9.55301C97.1623 9.44352 97.45 9.38849 97.7401 9.39115H104.74C105.798 9.32111 106.858 9.46181 107.861 9.80515C108.863 10.1485 109.788 10.6876 110.58 11.3911C111.159 12.0022 111.61 12.7232 111.906 13.5117C112.201 14.3001 112.335 15.1399 112.3 15.9811L112.25 16.0611Z" fill="#F3F3F2"/>
<path d="M161.99 0.00123467H129.99C129.041 0.00123467 128.13 0.378377 127.459 1.04976C126.787 1.72114 126.41 2.63178 126.41 3.58125V35.5813C126.409 36.0522 126.5 36.5188 126.68 36.9543C126.859 37.3898 127.123 37.7857 127.455 38.1192C127.788 38.4526 128.183 38.7172 128.618 38.8978C129.053 39.0783 129.519 39.1712 129.99 39.1712H161.99C162.942 39.1712 163.855 38.793 164.529 38.1198C165.202 37.4465 165.58 36.5334 165.58 35.5813V3.58125C165.58 3.11028 165.487 2.64394 165.307 2.20894C165.126 1.77394 164.862 1.37878 164.528 1.04622C164.195 0.713653 163.799 0.450211 163.363 0.270888C162.928 0.0915653 162.461 -8.09041e-05 161.99 0.00123467ZM151.75 29.4412H140.49C140.201 29.4439 139.913 29.3888 139.645 29.2792C139.377 29.1696 139.133 29.0076 138.929 28.8028C138.724 28.598 138.562 28.3544 138.452 28.0863C138.343 27.8181 138.288 27.5309 138.29 27.2412V11.5912C138.288 11.3015 138.343 11.0143 138.452 10.7462C138.562 10.478 138.724 10.2344 138.929 10.0296C139.133 9.82479 139.377 9.66285 139.645 9.55324C139.913 9.44362 140.201 9.38858 140.49 9.39125H151.61C152.141 9.39125 152.649 9.60193 153.024 9.977C153.399 10.3521 153.61 10.8608 153.61 11.3912C153.61 11.9217 153.399 12.4304 153.024 12.8054C152.649 13.1805 152.141 13.3912 151.61 13.3912H142.67V17.4613H150.37C150.901 17.4613 151.409 17.6719 151.784 18.047C152.159 18.4221 152.37 18.9308 152.37 19.4613C152.37 19.9917 152.159 20.5004 151.784 20.8754C151.409 21.2505 150.901 21.4613 150.37 21.4613H142.67V25.6712H151.75C152.041 25.6122 152.341 25.6186 152.628 25.6897C152.916 25.7609 153.184 25.8951 153.414 26.0827C153.643 26.2702 153.828 26.5065 153.955 26.7743C154.082 27.0421 154.148 27.3348 154.148 27.6312C154.148 27.9276 154.082 28.2203 153.955 28.4881C153.828 28.7559 153.643 28.9922 153.414 29.1798C153.184 29.3673 152.916 29.5015 152.628 29.5727C152.341 29.6439 152.041 29.6502 151.75 29.5912V29.4412Z" fill="#F3F3F2"/>
<path d="M204.16 0.0012207H172.16C171.211 0.0012207 170.3 0.378363 169.629 1.04974C168.957 1.72112 168.58 2.63176 168.58 3.58124V35.5812C168.579 36.0522 168.67 36.5188 168.85 36.9543C169.029 37.3898 169.293 37.7856 169.625 38.1191C169.958 38.4526 170.353 38.7172 170.788 38.8978C171.223 39.0783 171.689 39.1712 172.16 39.1712H204.16C204.631 39.1712 205.097 39.0783 205.532 38.8978C205.967 38.7172 206.363 38.4526 206.695 38.1191C207.028 37.7856 207.291 37.3898 207.47 36.9543C207.65 36.5188 207.741 36.0522 207.74 35.5812V3.58124C207.74 2.63176 207.363 1.72112 206.692 1.04974C206.02 0.378363 205.11 0.0012207 204.16 0.0012207ZM197.09 27.3512C197.091 27.6418 197.035 27.9298 196.925 28.1985C196.814 28.4672 196.651 28.7114 196.446 28.9169C196.24 29.1224 195.996 29.2851 195.727 29.3957C195.459 29.5063 195.171 29.5625 194.88 29.5612H194.74C194.28 29.5543 193.828 29.4327 193.427 29.2075C193.025 28.9822 192.686 28.6605 192.44 28.2712L183.62 16.6812V27.4312C183.583 27.9826 183.337 28.4992 182.934 28.8765C182.53 29.2538 181.998 29.4636 181.445 29.4636C180.892 29.4636 180.36 29.2538 179.957 28.8765C179.553 28.4992 179.308 27.9826 179.27 27.4312V11.4312C179.267 11.1411 179.322 10.8533 179.432 10.5847C179.541 10.316 179.703 10.0718 179.908 9.86615C180.113 9.66053 180.356 9.49762 180.624 9.3869C180.892 9.27619 181.18 9.21985 181.47 9.22119H181.93C182.389 9.22706 182.84 9.34832 183.24 9.57373C183.64 9.79914 183.977 10.1215 184.22 10.5112L192.73 21.6812V11.3912C192.73 10.8131 192.96 10.2586 193.369 9.84973C193.777 9.4409 194.332 9.21124 194.91 9.21124C195.488 9.21124 196.043 9.4409 196.452 9.84973C196.86 10.2586 197.09 10.8131 197.09 11.3912V27.3512Z" fill="#F3F3F2"/>
<path d="M246.24 0.0012207H214.24C213.291 0.0012207 212.38 0.378363 211.709 1.04974C211.037 1.72112 210.66 2.63176 210.66 3.58124V35.5812C210.659 36.0522 210.75 36.5188 210.93 36.9543C211.109 37.3898 211.373 37.7856 211.705 38.1191C212.038 38.4526 212.433 38.7172 212.868 38.8978C213.303 39.0783 213.769 39.1712 214.24 39.1712H246.24C247.191 39.1686 248.101 38.7892 248.772 38.1162C249.443 37.4432 249.82 36.5316 249.82 35.5812V3.58124C249.82 2.63176 249.443 1.72112 248.772 1.04974C248.1 0.378363 247.19 0.0012207 246.24 0.0012207ZM239.49 19.4112C239.49 25.0612 235.13 29.4112 228.83 29.4112H223.22C222.93 29.4152 222.641 29.3612 222.372 29.2521C222.103 29.1431 221.858 28.9814 221.652 28.7764C221.446 28.5715 221.283 28.3274 221.173 28.0586C221.063 27.7898 221.007 27.5017 221.01 27.2112V11.5912C221.007 11.3007 221.063 11.0126 221.173 10.7438C221.283 10.475 221.446 10.231 221.652 10.026C221.858 9.82104 222.103 9.65931 222.372 9.55029C222.641 9.44128 222.93 9.38723 223.22 9.39124H228.83C235.13 9.39124 239.49 13.7112 239.49 19.3912V19.4112Z" fill="#F3F3F2"/>
<path d="M288.37 0.0311279H256.37C255.421 0.0311279 254.51 0.408332 253.839 1.07971C253.167 1.75109 252.79 2.66167 252.79 3.61115V35.6111C252.79 36.5606 253.167 37.4712 253.839 38.1426C254.51 38.814 255.421 39.1912 256.37 39.1912H288.37C289.319 39.1912 290.23 38.814 290.901 38.1426C291.573 37.4712 291.95 36.5606 291.95 35.6111V3.61115C291.95 2.66167 291.573 1.75109 290.901 1.07971C290.23 0.408332 289.319 0.0311279 288.37 0.0311279ZM283.03 19.4412C282.953 22.211 281.801 24.8422 279.818 26.777C277.834 28.7118 275.175 29.7982 272.404 29.806C269.633 29.8138 266.968 28.7424 264.974 26.8188C262.979 24.8952 261.812 22.2705 261.72 19.5012V19.4412C261.797 16.6713 262.949 14.0402 264.932 12.1053C266.916 10.1705 269.575 9.0841 272.346 9.07629C275.117 9.06849 277.782 10.1399 279.776 12.0635C281.771 13.9872 282.938 16.6118 283.03 19.3812V19.4412Z" fill="#F3F3F2"/>
<path d="M279.51 19.8412C279.464 19.7006 279.374 19.5784 279.253 19.4921C279.133 19.4059 278.988 19.3601 278.84 19.3612C278.622 19.3488 278.404 19.3829 278.2 19.4613C277.871 19.5864 277.553 19.7403 277.25 19.9212L276.04 20.6212C275.758 20.788 275.46 20.9253 275.15 21.0312C275.084 21.0426 275.016 21.0426 274.95 21.0312L275.03 20.9412C275.45 20.5251 275.894 20.1344 276.36 19.7713C276.77 19.4213 277.2 19.0913 277.61 18.7713C278.074 18.3875 278.515 17.9767 278.93 17.5412C279.123 17.3444 279.279 17.114 279.39 16.8612C279.473 16.6869 279.497 16.4906 279.46 16.3012C279.436 16.1683 279.376 16.0447 279.286 15.9441C279.196 15.8435 279.079 15.7698 278.95 15.7312C278.81 15.6909 278.661 15.6909 278.52 15.7312C278.254 15.7633 278.002 15.867 277.79 16.0312C277.58 16.1812 277.38 16.3412 277.18 16.5012L275.87 17.5012C275.366 17.9045 274.842 18.2817 274.3 18.6312C274.136 18.7375 273.965 18.8343 273.79 18.9212C273.897 18.7102 274.017 18.5065 274.15 18.3112C274.458 17.8749 274.792 17.4575 275.15 17.0612C275.74 16.3812 276.31 15.7112 276.86 15.0012C277.07 14.7509 277.23 14.4622 277.33 14.1512C277.384 14.0104 277.4 13.8581 277.377 13.7091C277.355 13.56 277.294 13.4195 277.2 13.3012C277.127 13.1897 277.022 13.1026 276.899 13.0509C276.776 12.9993 276.641 12.9854 276.51 13.0112C276.127 13.0893 275.777 13.285 275.51 13.5712C275.12 13.9612 274.74 14.3612 274.36 14.7512C273.98 15.1412 273.53 15.6612 273.13 16.1412C272.959 16.3708 272.768 16.5849 272.56 16.7812L272.19 17.1112C272.155 17.0143 272.155 16.9081 272.19 16.8112C272.46 16.1212 272.73 15.4412 272.99 14.7512C273.198 14.2686 273.343 13.761 273.42 13.2412C273.45 13.0256 273.45 12.8068 273.42 12.5912C273.389 12.4209 273.296 12.268 273.16 12.1612C273.024 12.0544 272.853 12.0011 272.68 12.0112C272.49 12.0299 272.313 12.1149 272.18 12.2512C271.951 12.4689 271.749 12.714 271.58 12.9812C271.294 13.4723 271.037 13.9798 270.81 14.5012C270.44 15.3112 270.13 16.1512 269.81 16.9812C269.72 17.2112 269.65 17.4512 269.54 17.6712C269.456 17.8429 269.32 17.9832 269.15 18.0712H269.09C269.067 18.0436 269.047 18.0134 269.03 17.9812C269.026 17.9413 269.026 17.9011 269.03 17.8612C268.97 17.5694 268.89 17.282 268.79 17.0012C268.639 16.6301 268.452 16.275 268.23 15.9412C267.985 15.573 267.637 15.2845 267.23 15.1112C267.051 15.0199 266.851 14.9752 266.65 14.9812C266.566 14.9804 266.485 15.0087 266.42 15.0612C266.342 15.1364 266.268 15.2165 266.2 15.3012C266.101 15.4162 266.033 15.5549 266.003 15.7039C265.973 15.8528 265.983 16.0069 266.03 16.1512C266.09 16.3412 266.14 16.5213 266.19 16.7113C266.331 17.2168 266.438 17.7313 266.51 18.2512C266.51 18.5512 266.57 18.8512 266.58 19.1512C266.59 19.4512 266.58 19.6812 266.58 19.9412C266.58 20.2012 266.58 20.1812 266.58 20.3012C266.58 20.4212 266.58 20.6412 266.58 20.8112C266.58 20.9812 266.58 21.3612 266.58 21.6412C266.586 21.9394 266.613 22.2367 266.66 22.5312C266.72 22.8982 266.831 23.2549 266.99 23.5912C267.146 23.915 267.349 24.2148 267.59 24.4812C267.936 24.882 268.349 25.2203 268.81 25.4812C269.233 25.71 269.7 25.8432 270.18 25.8712C270.356 25.8861 270.534 25.8861 270.71 25.8712C270.929 25.8575 271.147 25.8241 271.36 25.7713C271.821 25.6618 272.268 25.4972 272.69 25.2812C273.11 25.0712 273.51 24.8412 273.9 24.6012C274.74 24.0912 275.54 23.5312 276.34 22.9712L277.91 21.8512C278.22 21.6412 278.54 21.4412 278.83 21.2012C279.095 20.9934 279.307 20.7262 279.45 20.4212C279.545 20.2432 279.567 20.0349 279.51 19.8412Z" fill="#F3F3F2"/>
<path d="M211.44 43.4512C211.431 43.3913 211.434 43.33 211.451 43.2717C211.468 43.2134 211.497 43.1594 211.536 43.1133C211.575 43.0673 211.624 43.0303 211.679 43.005C211.735 42.9797 211.794 42.9666 211.855 42.9666C211.916 42.9666 211.976 42.9797 212.031 43.005C212.086 43.0303 212.135 43.0673 212.174 43.1133C212.213 43.1594 212.242 43.2134 212.259 43.2717C212.276 43.33 212.279 43.3913 212.27 43.4512V44.5411C212.37 44.393 212.506 44.2723 212.665 44.1902C212.824 44.1081 213.001 44.0672 213.18 44.0712C213.369 44.0757 213.555 44.1192 213.726 44.1991C213.898 44.279 214.05 44.3934 214.175 44.5352C214.3 44.677 214.394 44.8432 214.452 45.0232C214.51 45.2032 214.529 45.3932 214.51 45.5812C214.529 45.7692 214.51 45.9591 214.452 46.1391C214.394 46.3191 214.3 46.4853 214.175 46.6271C214.05 46.7689 213.898 46.8833 213.726 46.9632C213.555 47.0431 213.369 47.0866 213.18 47.0911C213.006 47.0939 212.833 47.0565 212.675 46.982C212.517 46.9074 212.379 46.7977 212.27 46.6611C212.255 46.7601 212.204 46.8504 212.128 46.9155C212.052 46.9807 211.955 47.0165 211.855 47.0165C211.755 47.0165 211.658 46.9807 211.582 46.9155C211.506 46.8504 211.455 46.7601 211.44 46.6611V43.4512ZM213.68 45.5911C213.697 45.4879 213.692 45.3822 213.664 45.2812C213.637 45.1803 213.587 45.0866 213.52 45.0067C213.452 44.9267 213.368 44.8625 213.273 44.8184C213.178 44.7744 213.075 44.7516 212.97 44.7516C212.865 44.7516 212.762 44.7744 212.667 44.8184C212.572 44.8625 212.488 44.9267 212.42 45.0067C212.353 45.0866 212.303 45.1803 212.276 45.2812C212.248 45.3822 212.243 45.4879 212.26 45.5911C212.243 45.6943 212.248 45.8001 212.276 45.9011C212.303 46.002 212.353 46.0957 212.42 46.1757C212.488 46.2556 212.572 46.3198 212.667 46.3638C212.762 46.4079 212.865 46.4307 212.97 46.4307C213.075 46.4307 213.178 46.4079 213.273 46.3638C213.368 46.3198 213.452 46.2556 213.52 46.1757C213.587 46.0957 213.637 46.002 213.664 45.9011C213.692 45.8001 213.697 45.6943 213.68 45.5911Z" fill="#F3F3F2"/>
<path d="M214.96 47.8611C214.886 47.8397 214.821 47.7951 214.774 47.7339C214.727 47.6727 214.701 47.5981 214.7 47.5211C214.7 47.4326 214.734 47.3476 214.796 47.2841C214.858 47.2206 214.942 47.1837 215.03 47.1811H215.17C215.226 47.1893 215.284 47.1893 215.34 47.1811C215.403 47.1896 215.467 47.1764 215.522 47.1437C215.576 47.111 215.618 47.0607 215.64 47.0011V46.9411L214.64 44.6211C214.631 44.5581 214.631 44.4941 214.64 44.4311C214.639 44.3773 214.648 44.3238 214.669 44.274C214.689 44.2241 214.719 44.179 214.758 44.1414C214.796 44.1038 214.842 44.0746 214.892 44.0556C214.943 44.0367 214.996 44.0283 215.05 44.031C215.142 44.0305 215.231 44.0608 215.304 44.117C215.376 44.1732 215.428 44.2521 215.45 44.341L216.08 46.0511L216.69 44.3511C216.714 44.2619 216.765 44.1826 216.837 44.125C216.909 44.0674 216.998 44.0344 217.09 44.031C217.142 44.0283 217.193 44.0362 217.242 44.0541C217.29 44.0719 217.334 44.0995 217.372 44.135C217.409 44.1706 217.439 44.2134 217.459 44.2609C217.48 44.3084 217.49 44.3594 217.49 44.411C217.498 44.4775 217.498 44.5446 217.49 44.6111L216.49 47.0611C216.24 47.6611 215.99 47.8811 215.49 47.8811C215.314 47.9121 215.133 47.9053 214.96 47.8611Z" fill="#F3F3F2"/>
<path d="M219.61 48.2012V41.8312H222.21C222.377 41.8193 222.544 41.8193 222.71 41.8312C222.945 41.8567 223.172 41.9291 223.378 42.0442C223.584 42.1593 223.765 42.3148 223.91 42.5012C224.19 42.9017 224.33 43.3831 224.31 43.8712C224.321 44.2135 224.259 44.5541 224.13 44.8712C224.022 45.1523 223.839 45.398 223.6 45.5812C223.339 45.7743 223.032 45.8981 222.71 45.9412C222.544 45.9532 222.377 45.9532 222.21 45.9412H220.66V48.1612L219.61 48.2012ZM222.16 44.9812C222.293 44.9997 222.427 44.9997 222.56 44.9812C222.67 44.9594 222.775 44.913 222.865 44.8455C222.955 44.7779 223.028 44.691 223.08 44.5912C223.197 44.3984 223.256 44.1764 223.25 43.9512C223.255 43.7229 223.196 43.4977 223.08 43.3012C223.028 43.2014 222.955 43.1144 222.865 43.0469C222.775 42.9794 222.67 42.933 222.56 42.9112C222.427 42.8982 222.293 42.8982 222.16 42.9112H220.66V45.0612L222.16 44.9812Z" fill="#F3F3F2"/>
<path d="M226.59 43.6812C226.725 43.5895 226.874 43.5187 227.03 43.4711C227.197 43.4283 227.368 43.4048 227.54 43.4011H227.84V44.4011C227.727 44.3859 227.613 44.3859 227.5 44.4011C227.279 44.3944 227.061 44.4499 226.87 44.5612C226.661 44.6647 226.495 44.838 226.4 45.0511C226.293 45.2829 226.238 45.5356 226.24 45.7911V48.2211H225.19V43.4512H226.12V44.2112C226.228 43.9964 226.39 43.8136 226.59 43.6812Z" fill="#F3F3F2"/>
<path d="M230.67 48.331C230.24 48.3404 229.815 48.2333 229.44 48.021C229.088 47.8008 228.801 47.4899 228.61 47.121C228.422 46.7099 228.325 46.2631 228.325 45.811C228.325 45.3589 228.422 44.9122 228.61 44.501C228.796 44.1309 229.084 43.822 229.44 43.611C229.81 43.3956 230.232 43.285 230.66 43.291C231.096 43.2822 231.526 43.3966 231.9 43.621C232.253 43.8326 232.538 44.1416 232.72 44.511C232.926 44.913 233.029 45.3596 233.02 45.811C233.029 46.2688 232.926 46.7219 232.72 47.131C232.531 47.4989 232.244 47.8071 231.89 48.021C231.519 48.2325 231.097 48.3396 230.67 48.331ZM230.67 47.331C230.845 47.3444 231.021 47.3139 231.182 47.2423C231.342 47.1707 231.483 47.0603 231.59 46.921C231.799 46.5883 231.909 46.2036 231.909 45.811C231.909 45.4184 231.799 45.0337 231.59 44.701C231.481 44.5637 231.34 44.4547 231.18 44.3833C231.02 44.312 230.845 44.2803 230.67 44.291C230.495 44.2794 230.32 44.3107 230.159 44.3822C229.999 44.4536 229.859 44.5631 229.75 44.701C229.525 45.0258 229.416 45.4167 229.44 45.811C229.42 46.208 229.528 46.601 229.75 46.931C229.861 47.0652 230.002 47.1714 230.162 47.2409C230.322 47.3104 230.496 47.3413 230.67 47.331Z" fill="#F3F3F2"/>
<path d="M236.07 48.3312C235.646 48.3519 235.226 48.2484 234.86 48.0334C234.494 47.8185 234.199 47.5015 234.01 47.1212C233.816 46.7123 233.72 46.2637 233.73 45.8112C233.718 45.3574 233.818 44.9076 234.02 44.5012C234.206 44.1311 234.494 43.8221 234.85 43.6111C235.225 43.3981 235.649 43.2861 236.08 43.2861C236.511 43.2861 236.935 43.3981 237.31 43.6111C237.663 43.8227 237.948 44.1318 238.13 44.5012C238.336 44.9032 238.439 45.3497 238.43 45.8011C238.439 46.259 238.336 46.712 238.13 47.1212C237.941 47.489 237.654 47.7972 237.3 48.0112C236.927 48.2269 236.502 48.3375 236.07 48.3312ZM236.07 47.3312C236.246 47.3445 236.421 47.314 236.582 47.2424C236.743 47.1709 236.883 47.0604 236.99 46.9211C237.199 46.5885 237.309 46.2038 237.309 45.8112C237.309 45.4185 237.199 45.0339 236.99 44.7012C236.881 44.5639 236.741 44.4549 236.58 44.3835C236.42 44.3121 236.245 44.2804 236.07 44.2911C235.895 44.2796 235.72 44.3109 235.559 44.3823C235.399 44.4538 235.259 44.5632 235.15 44.7012C234.947 45.0377 234.84 45.4232 234.84 45.8162C234.84 46.2091 234.947 46.5946 235.15 46.9312C235.261 47.0654 235.403 47.1715 235.562 47.241C235.722 47.3105 235.896 47.3414 236.07 47.3312Z" fill="#F3F3F2"/>
<path d="M241.44 42.5712C241.36 42.5657 241.28 42.5761 241.205 42.6018C241.129 42.6276 241.06 42.6681 241 42.7211C240.949 42.7741 240.91 42.8369 240.884 42.9057C240.858 42.9745 240.847 43.0478 240.85 43.1212V43.4312H241.99V44.2612H240.85V48.2012H239.8V44.2612H239.04V43.4312H239.8V43.3511C239.8 43.1711 239.8 43.0212 239.8 42.8912C239.814 42.7589 239.841 42.6283 239.88 42.5012C239.927 42.3611 240.002 42.2319 240.1 42.1212C240.23 41.9572 240.409 41.8383 240.61 41.7811C240.819 41.7275 241.034 41.7007 241.25 41.7012H241.98V42.5712H241.44Z" fill="#F3F3F2"/>
<path d="M247.09 48.3312C246.529 48.3469 245.975 48.2048 245.49 47.9211C245.051 47.6404 244.703 47.2372 244.49 46.7612C244.241 46.2155 244.118 45.6208 244.13 45.0212C244.118 44.4215 244.241 43.8268 244.49 43.2811C244.703 42.8051 245.051 42.4019 245.49 42.1212C245.98 41.8461 246.533 41.7017 247.095 41.7017C247.657 41.7017 248.21 41.8461 248.7 42.1212C249.157 42.3952 249.523 42.799 249.75 43.2811C249.999 43.8268 250.122 44.4215 250.11 45.0212C250.122 45.6208 249.999 46.2155 249.75 46.7612C249.523 47.2433 249.157 47.6471 248.7 47.9211C248.213 48.2066 247.655 48.3488 247.09 48.3312ZM247.09 47.3312C247.444 47.3393 247.792 47.2418 248.09 47.0511C248.378 46.8494 248.6 46.5678 248.73 46.2411C249.004 45.4474 249.004 44.5849 248.73 43.7911C248.6 43.4646 248.373 43.1856 248.08 42.9911C247.763 42.7916 247.394 42.6907 247.02 42.7012C246.664 42.6971 246.315 42.8017 246.02 43.0012C245.733 43.1984 245.515 43.4821 245.4 43.8112C245.12 44.6004 245.12 45.4619 245.4 46.2512C245.531 46.5777 245.757 46.8567 246.05 47.0511C246.371 47.2497 246.744 47.3472 247.12 47.3312H247.09Z" fill="#F3F3F2"/>
<path d="M253.03 42.5712C252.95 42.5657 252.871 42.5761 252.795 42.6018C252.719 42.6276 252.65 42.6682 252.59 42.7212C252.539 42.7741 252.5 42.837 252.474 42.9057C252.448 42.9745 252.437 43.0478 252.44 43.1212V43.4312H253.58V44.2612H252.44V48.2012H251.37V44.2612H250.61V43.4312H251.37V43.3512C251.37 43.1712 251.37 43.0212 251.37 42.8912C251.379 42.7582 251.406 42.6271 251.45 42.5012C251.497 42.3611 251.572 42.2319 251.67 42.1212C251.8 41.9573 251.979 41.8383 252.18 41.7812C252.392 41.7269 252.611 41.7 252.83 41.7012H253.55V42.5712H253.03Z" fill="#F3F3F2"/>
<path d="M257.17 48.201H256.11V41.8311H257.17V48.201Z" fill="#F3F3F2"/>
<path d="M260.94 43.2912C261.381 43.2594 261.816 43.4032 262.15 43.6912C262.407 43.9362 262.591 44.2478 262.68 44.5912C262.757 44.8987 262.798 45.2142 262.8 45.5312V48.2013H261.74V45.9012C261.74 44.8312 261.37 44.2912 260.64 44.2912C260.492 44.2843 260.345 44.3103 260.208 44.3674C260.071 44.4245 259.949 44.5112 259.85 44.6212C259.601 44.9423 259.487 45.3474 259.53 45.7512V48.2013H258.46V43.4312H259.37V43.9613C259.549 43.7458 259.775 43.5747 260.03 43.4613C260.318 43.3416 260.628 43.2836 260.94 43.2912Z" fill="#F3F3F2"/>
<path d="M265.37 44.2612V46.4412C265.363 46.5644 265.363 46.6879 265.37 46.8112C265.376 46.8965 265.404 46.979 265.45 47.0511C265.513 47.161 265.612 47.2457 265.73 47.2911C265.875 47.3385 266.027 47.3622 266.18 47.3611C266.366 47.3738 266.554 47.3738 266.74 47.3611V48.2512C266.477 48.308 266.209 48.3381 265.94 48.3411C265.636 48.3447 265.334 48.2904 265.05 48.1812C264.806 48.0786 264.604 47.8949 264.48 47.6611C264.411 47.5252 264.36 47.3806 264.33 47.2311C264.318 47.058 264.318 46.8843 264.33 46.7112V44.3112H263.48V43.4811H264.33V42.1511H265.37V43.4811H266.76V44.3112L265.37 44.2612Z" fill="#F3F3F2"/>
<path d="M268.37 46.1112C268.388 46.4492 268.522 46.7707 268.75 47.0212C268.861 47.1279 268.993 47.2104 269.138 47.2637C269.282 47.3171 269.436 47.3401 269.59 47.3312C269.822 47.3447 270.053 47.2867 270.252 47.1652C270.45 47.0436 270.607 46.8642 270.7 46.6511L271.7 46.9711C271.582 47.2474 271.412 47.4986 271.2 47.7112C270.992 47.9143 270.743 48.0711 270.47 48.1712C270.197 48.2807 269.904 48.3352 269.61 48.3312C269.173 48.3417 268.741 48.2346 268.36 48.0212C267.999 47.815 267.704 47.5096 267.51 47.1412C267.306 46.7495 267.203 46.3129 267.21 45.8712C267.201 45.4016 267.3 44.9362 267.5 44.5112C267.683 44.1364 267.971 43.8235 268.33 43.6112C268.7 43.3958 269.122 43.2852 269.55 43.2911C269.965 43.2778 270.375 43.3855 270.73 43.6011C271.067 43.8086 271.335 44.1113 271.5 44.4711C271.681 44.8872 271.77 45.3375 271.76 45.7911C271.76 45.8911 271.76 46.0012 271.76 46.1112H268.37ZM269.64 44.2311C269.488 44.2189 269.335 44.2369 269.19 44.2842C269.046 44.3316 268.912 44.4072 268.796 44.5068C268.681 44.6063 268.586 44.7278 268.518 44.8642C268.45 45.0006 268.41 45.1491 268.4 45.3012H270.72C270.705 45.0015 270.589 44.7158 270.39 44.4912C270.286 44.395 270.162 44.3221 270.028 44.2773C269.894 44.2325 269.751 44.2167 269.61 44.2311H269.64Z" fill="#F3F3F2"/>
<path d="M275.97 43.431H276.89V48.431C276.893 48.6558 276.873 48.8803 276.83 49.101C276.783 49.3085 276.693 49.5041 276.568 49.676C276.442 49.8479 276.283 49.9925 276.1 50.101C275.68 50.3374 275.203 50.455 274.72 50.441C274.336 50.4419 273.957 50.3456 273.62 50.161C273.295 49.9847 273.025 49.7216 272.84 49.401L273.84 48.911C273.923 49.072 274.051 49.2044 274.21 49.291C274.377 49.3786 274.562 49.4233 274.75 49.421C275.047 49.4349 275.339 49.3388 275.57 49.151C275.671 49.0526 275.75 48.934 275.801 48.803C275.853 48.6721 275.876 48.5317 275.87 48.391V47.941C275.515 48.1941 275.086 48.3241 274.65 48.311C274.251 48.3157 273.858 48.2045 273.52 47.991C273.194 47.7598 272.935 47.4457 272.77 47.081C272.592 46.6742 272.5 46.235 272.5 45.791C272.5 45.347 272.592 44.9078 272.77 44.501C272.934 44.1324 273.201 43.8196 273.54 43.601C273.881 43.3762 274.282 43.2611 274.69 43.271C275.173 43.255 275.642 43.4271 276 43.751L275.97 43.431ZM274.79 47.431C274.962 47.4437 275.134 47.4117 275.29 47.3381C275.446 47.2645 275.581 47.1518 275.68 47.011C275.891 46.6658 275.992 46.2649 275.97 45.861C275.993 45.4616 275.895 45.0644 275.69 44.721C275.592 44.5832 275.461 44.4724 275.309 44.399C275.157 44.3255 274.989 44.2918 274.82 44.301C274.573 44.2938 274.331 44.3675 274.13 44.511C273.943 44.651 273.801 44.842 273.72 45.061C273.533 45.5814 273.533 46.1506 273.72 46.671C273.8 46.8907 273.938 47.0844 274.12 47.231C274.322 47.3506 274.557 47.4031 274.79 47.381V47.431Z" fill="#F3F3F2"/>
<path d="M279.52 43.6812C279.655 43.5895 279.804 43.5187 279.96 43.4711C280.127 43.4283 280.298 43.4048 280.47 43.4011H280.77V44.4011C280.657 44.3859 280.543 44.3859 280.43 44.4011C280.209 44.3944 279.991 44.4499 279.8 44.5612C279.591 44.668 279.423 44.84 279.32 45.0511C279.216 45.2837 279.165 45.5364 279.17 45.7911V48.2211H278.11V43.4512H279.05V44.2112C279.158 43.9964 279.32 43.8136 279.52 43.6812Z" fill="#F3F3F2"/>
<path d="M282.74 48.2011H281.69V43.431H282.74V48.2011ZM282.21 42.851C282.102 42.8506 281.995 42.8232 281.9 42.7711C281.805 42.7159 281.725 42.6365 281.67 42.541C281.613 42.4406 281.586 42.3264 281.59 42.2111C281.587 42.0991 281.615 41.9884 281.67 41.8911C281.723 41.7937 281.803 41.7137 281.9 41.661C281.993 41.6042 282.101 41.5764 282.21 41.5811C282.325 41.5765 282.44 41.6042 282.54 41.661C282.632 41.7169 282.708 41.7963 282.76 41.8911C282.819 41.9876 282.85 42.0982 282.85 42.2111C282.851 42.3273 282.82 42.4414 282.76 42.541C282.706 42.6338 282.63 42.7126 282.54 42.7711C282.438 42.8233 282.325 42.8507 282.21 42.851Z" fill="#F3F3F2"/>
<path d="M285.43 44.2612V46.4412C285.423 46.5644 285.423 46.6879 285.43 46.8112C285.437 46.8965 285.464 46.979 285.51 47.0511C285.573 47.161 285.672 47.2457 285.79 47.2911C285.935 47.3385 286.087 47.3622 286.24 47.3611C286.426 47.3738 286.614 47.3738 286.8 47.3611V48.2512C286.537 48.308 286.269 48.3381 286 48.3411C285.696 48.3447 285.394 48.2904 285.11 48.1812C284.866 48.0786 284.664 47.8949 284.54 47.6611C284.471 47.5252 284.42 47.3806 284.39 47.2311C284.378 47.058 284.378 46.8843 284.39 46.7112V44.3112H283.54V43.4811H284.37V42.1511H285.42V43.4811H286.81V44.3112L285.43 44.2612Z" fill="#F3F3F2"/>
<path d="M289.6 46.8411L290.89 43.4312H291.94L289.31 50.3212H288.31L289.09 48.1711L287.18 43.4312H288.28L289.6 46.8411Z" fill="#F3F3F2"/>
</svg>
