<svg width="360" height="33" viewBox="0 0 360 33" fill="none" xmlns="http://www.w3.org/2000/svg">
<g clip-path="url(#clip0_506_13)">
<path d="M21.5476 18.0924C21.5476 12.1627 25.8542 8.00623 31.7769 8.00623C35.139 8.00623 37.9725 9.32922 39.5581 11.9343L37.5565 13.2982C36.1926 11.2967 34.082 10.3522 31.7599 10.3522C27.4158 10.3522 24.2584 13.4482 24.2584 18.0958C24.2584 22.7433 27.4295 25.836 31.7599 25.836C34.0649 25.836 36.1926 24.9324 37.5565 22.9274L39.5581 24.2913C37.9725 26.8589 35.1254 28.2194 31.7769 28.2194C25.8542 28.2126 21.5476 24.022 21.5476 18.0924Z" fill="#FFD241"/>
<path d="M39.1556 18.0924C39.1556 12.2003 43.4622 8.00623 49.2793 8.00623C55.0964 8.00623 59.362 12.2003 59.362 18.0924C59.362 23.9845 55.0964 28.2126 49.2793 28.2126C43.4622 28.2126 39.1556 23.9879 39.1556 18.0924ZM56.6444 18.0924C56.6444 13.4448 53.5108 10.3487 49.2793 10.3487C45.0477 10.3487 41.8766 13.4448 41.8766 18.0924C41.8766 22.7399 45.0477 25.8326 49.2793 25.8326C53.5108 25.8326 56.6444 22.7365 56.6444 18.0924Z" fill="#FFD241"/>
<path d="M94.1758 16.5034V28.025H91.4957V16.7728C91.4957 12.5787 89.3782 10.4272 85.7911 10.4272C81.6994 10.4272 79.1421 13.0697 79.1421 17.6048V28.0285H76.462V16.7762C76.462 12.5822 74.3479 10.4306 70.7233 10.4306C66.6793 10.4306 64.0743 13.0732 64.0743 17.6082V28.0319H61.3942V8.15626H63.9617V11.7843C65.3563 9.39742 67.9273 8.00623 71.2518 8.00623C74.5764 8.00623 77.103 9.40423 78.3135 12.2003C79.749 9.62928 82.5825 8.00623 86.156 8.00623C91.0047 8.00623 94.1758 10.8022 94.1758 16.5034Z" fill="#FFD241"/>
<path d="M115.47 8.15625V28.025H112.902V24.397C111.504 26.8146 108.937 28.2126 105.762 28.2126C100.702 28.2126 97.3776 25.3791 97.3776 19.6881V8.15625H100.061V19.4085C100.061 23.6401 102.25 25.7916 106.028 25.7916C110.181 25.7916 112.79 23.1115 112.79 18.5799V8.15625H115.47Z" fill="#FFD241"/>
<path d="M137.361 16.5034V28.025H134.677V16.7728C134.677 12.5787 132.488 10.4272 128.71 10.4272C124.441 10.4272 121.761 13.0697 121.761 17.6048V28.0285H119.081V8.15626H121.648V11.8218C123.084 9.40424 125.764 8.00623 129.201 8.00623C134.036 8.00623 137.361 10.8022 137.361 16.5034Z" fill="#FFD241"/>
<path d="M140.085 1.88907C140.097 1.37868 140.31 0.893611 140.678 0.539712C141.046 0.185813 141.539 -0.00818595 142.049 5.02648e-05C142.3 -0.0076743 142.549 0.0341263 142.784 0.123052C143.018 0.211978 143.233 0.346283 143.415 0.518276C143.598 0.690269 143.744 0.896569 143.847 1.12536C143.95 1.35415 144.006 1.60093 144.013 1.85156C144.018 2.37246 143.816 2.87399 143.451 3.24583C143.086 3.61768 142.589 3.82938 142.068 3.83435C141.547 3.83933 141.045 3.63717 140.674 3.27236C140.302 2.90755 140.09 2.40997 140.085 1.88907ZM140.702 8.15625H143.382V28.025H140.702V8.15625Z" fill="#FFD241"/>
<path d="M165.396 3.90759V28.025H162.828V24.0969C161.205 26.777 158.447 28.2125 155.16 28.2125C149.496 28.2125 145.271 24.0969 145.271 18.0923C145.271 12.0877 149.503 8.00615 155.16 8.00615C158.334 8.00615 161.052 9.37006 162.716 11.9342V3.90759H165.396ZM162.753 18.0923C162.753 13.4448 159.579 10.3487 155.388 10.3487C151.198 10.3487 147.986 13.4448 147.986 18.0923C147.986 22.7398 151.157 25.8325 155.388 25.8325C159.62 25.8325 162.753 22.7364 162.753 18.0923Z" fill="#FFD241"/>
<path d="M208.114 3.90759V28.025H205.546V24.0969C203.923 26.777 201.165 28.2125 197.877 28.2125C192.214 28.2125 187.989 24.0969 187.989 18.0923C187.989 12.0877 192.221 8.00615 197.877 8.00615C201.052 8.00615 203.77 9.37006 205.434 11.9342V3.90759H208.114ZM205.488 18.0923C205.488 13.4448 202.314 10.3487 198.123 10.3487C193.932 10.3487 190.72 13.4448 190.72 18.0923C190.72 22.7398 193.891 25.8325 198.123 25.8325C202.355 25.8325 205.488 22.7364 205.488 18.0923Z" fill="#FFD241"/>
<path d="M184.075 11.9343C182.411 9.36672 179.693 8.00623 176.519 8.00623C170.855 8.00623 166.63 12.098 166.63 18.0924C166.63 24.0868 170.862 28.2126 176.519 28.2126C179.806 28.2126 182.564 26.7771 184.187 24.097V28.025H186.755V8.15626H184.075V11.9343ZM176.747 25.8326C172.516 25.8326 169.344 22.7365 169.344 18.0924C169.344 13.4482 172.516 10.3487 176.747 10.3487C180.979 10.3487 184.112 13.4448 184.112 18.0924C184.112 22.7399 180.938 25.8326 176.747 25.8326Z" fill="#FFD241"/>
<path d="M354.584 8.18347H337.59V23.6468L342.2 27.8409L342.428 28.0489H342.445H354.605L359.443 32.4509V12.5991L354.584 8.18347ZM352.842 11.5557L354.373 13.1413C354.374 13.1445 354.375 13.148 354.375 13.1515C354.375 13.1551 354.374 13.1586 354.373 13.1618V17.4069C354.374 17.4137 354.374 17.4206 354.373 17.4274L352.872 18.955C352.865 18.9576 352.856 18.9576 352.849 18.955H350.588L350.22 19.3232V21.26C350.22 21.269 350.216 21.2777 350.21 21.2841C350.203 21.2905 350.195 21.2941 350.186 21.2941H346.837C346.833 21.2941 346.829 21.2932 346.825 21.2915C346.821 21.2897 346.817 21.2871 346.814 21.2839C346.811 21.2807 346.809 21.2769 346.808 21.2728C346.806 21.2687 346.806 21.2643 346.806 21.26V18.2901C346.804 18.2822 346.804 18.274 346.806 18.2662L348.307 16.742C348.311 16.7404 348.315 16.7396 348.319 16.7396C348.323 16.7396 348.327 16.7404 348.331 16.742H350.591L350.96 16.3704V14.1404L350.591 13.7687H346.418L346.049 14.1404V16.4079C346.049 16.416 346.046 16.4238 346.04 16.4296C346.035 16.4353 346.027 16.4386 346.019 16.4386H342.667C342.659 16.4386 342.651 16.4353 342.645 16.4296C342.64 16.4238 342.636 16.416 342.636 16.4079V13.1652C342.635 13.1584 342.635 13.1514 342.636 13.1447L344.174 11.5592L352.842 11.5557ZM350.223 22.4943V24.6698C350.222 24.6782 350.218 24.686 350.212 24.6917C350.206 24.6974 350.197 24.7005 350.189 24.7005H346.841C346.832 24.7005 346.825 24.6972 346.819 24.6915C346.813 24.6857 346.81 24.6779 346.81 24.6698V22.5046C346.81 22.4961 346.813 22.4879 346.819 22.4816C346.824 22.4753 346.832 22.4713 346.841 22.4705H350.189C350.196 22.4701 350.204 22.4723 350.21 22.4766C350.216 22.4809 350.221 22.4871 350.223 22.4943Z" fill="#FFD241"/>
<path d="M233.322 8.18347V28.0352H240.609V21.4202H252.962V12.5957L248.11 8.18347H233.322ZM245.672 17.0114H240.609V13.7005H245.679L245.672 17.0114Z" fill="#FFD241"/>
<path d="M254.487 8.18347V28.0352H261.75V21.4202H266.823V28.0352H274.107V19.2141H271.675L274.107 17.0114V12.5957L269.251 8.18347H254.487ZM266.837 17.0114H261.75V13.7005H266.823L266.837 17.0114Z" fill="#FFD241"/>
<path d="M275.651 23.6298L280.5 28.0386H293.45V22.525H282.928V20.3189H293.45V15.9066H282.928V13.7039H293.45V8.18347H275.651V23.6298Z" fill="#FFD241"/>
<path d="M295.08 8.18347V28.0386H302.357V14.8019H307.212V28.0386H314.495V12.5991L309.64 8.18347H295.08Z" fill="#FFD241"/>
<path d="M316.705 8.18347V28.0352H331.258L336.113 23.6468V12.5957L331.258 8.18347H316.705ZM328.834 21.4202H323.981V14.8019H328.834V21.4202Z" fill="#FFD241"/>
<path d="M214.882 8.18347L210.026 12.5957V28.0352H217.306V22.525H224.583V28.0352H231.859V12.5957L227.007 8.18347H214.882ZM224.583 17.0114H217.306V13.7005H224.583V14.8019V17.0114Z" fill="#FFD241"/>
<path d="M13.7425 8.18345L13.1492 13.0765H8.44712L9.08475 8.18345H6.39103L5.78068 13.0765H1.4639V15.76H5.44311L4.8464 20.5882H0.560303V23.2717H4.50883L3.93599 28.025H6.59902L7.19915 23.282H11.8774L11.3045 28.025H13.9676L14.5404 23.282H18.8299V20.5985H14.8814L15.4815 15.7702H19.7369V13.0765H15.8123L16.4056 8.17322L13.7425 8.18345ZM12.2149 20.5985H7.51285L8.13343 15.7702H12.8116L12.2149 20.5985Z" fill="#FFD241"/>
</g>
<defs>
<clipPath id="clip0_506_13">
<rect width="358.886" height="32.4509" fill="white" transform="translate(0.556885)"/>
</clipPath>
</defs>
</svg>
