<svg width="22" height="22" viewBox="0 0 22 22" fill="none" xmlns="http://www.w3.org/2000/svg">
<path d="M17.4167 15.5834V17.4167H6.41667V15.5834C6.41667 15.5834 6.41667 11.9167 11.9167 11.9167C17.4167 11.9167 17.4167 15.5834 17.4167 15.5834ZM14.6667 7.33337C14.6667 6.78948 14.5054 6.25779 14.2032 5.80556C13.901 5.35332 13.4715 5.00085 12.969 4.79271C12.4665 4.58457 11.9136 4.53011 11.3802 4.63622C10.8467 4.74233 10.3567 5.00424 9.97212 5.38883C9.58753 5.77343 9.32562 6.26343 9.21951 6.79688C9.1134 7.33032 9.16786 7.88326 9.376 8.38575C9.58414 8.88825 9.93661 9.31774 10.3888 9.61992C10.8411 9.92209 11.3728 10.0834 11.9167 10.0834C12.646 10.0834 13.3455 9.79364 13.8612 9.27792C14.3769 8.76219 14.6667 8.06272 14.6667 7.33337ZM17.6 11.9717C18.1011 12.434 18.5051 12.9914 18.7883 13.6115C19.0716 14.2316 19.2286 14.902 19.25 15.5834V17.4167H22V15.5834C22 15.5834 22 12.4209 17.6 11.9717ZM16.5 4.58338C16.223 4.58354 15.9478 4.62684 15.6842 4.71171C16.2205 5.48076 16.508 6.39579 16.508 7.33337C16.508 8.27096 16.2205 9.18599 15.6842 9.95504C15.9478 10.0399 16.223 10.0832 16.5 10.0834C17.2293 10.0834 17.9288 9.79364 18.4445 9.27792C18.9603 8.76219 19.25 8.06272 19.25 7.33337C19.25 6.60403 18.9603 5.90456 18.4445 5.38883C17.9288 4.87311 17.2293 4.58338 16.5 4.58338ZM7.33333 9.16671H4.58333V6.41671H2.75V9.16671H0V11H2.75V13.75H4.58333V11H7.33333V9.16671Z" fill="white"/>
</svg>
