<svg width="54" height="40" viewBox="0 0 54 40" fill="none" xmlns="http://www.w3.org/2000/svg">
<path d="M45.7985 4.70819C41.1959 1.00937 33.9179 0.382772 33.6103 0.356189C33.1242 0.314416 32.6628 0.58974 32.4634 1.03405C32.4558 1.04924 32.0495 2.22838 31.6564 3.36575C37.0053 4.30185 40.6395 6.37911 40.8332 6.49304C41.7408 7.0209 42.0446 8.18485 41.5149 9.09057C41.1636 9.69438 40.5275 10.0324 39.8743 10.0324C39.5496 10.0324 39.223 9.95071 38.923 9.77603C38.8699 9.74375 33.5381 6.7095 26.5867 6.7095C19.6334 6.7095 14.2997 9.74565 14.2465 9.77603C13.3408 10.302 12.1788 9.99249 11.6528 9.08487C11.1268 8.18105 11.4325 7.0209 12.3364 6.49304C12.53 6.37911 16.1776 4.29426 21.5416 3.36006C21.1277 2.2094 20.71 1.04924 20.7024 1.03405C20.503 0.587841 20.0416 0.306821 19.5555 0.356189C19.2479 0.380874 11.9699 1.00747 7.3065 4.75756C4.86847 7.00951 0 20.1756 0 31.5588C0 31.7601 0.0512671 31.9556 0.151902 32.1303C3.51464 38.0355 12.6819 39.5811 14.7706 39.6476C14.7839 39.6495 14.7953 39.6495 14.8067 39.6495C15.175 39.6495 15.5225 39.4729 15.7409 39.1748L18.0004 36.114C13.0446 34.9196 10.4243 33.0417 10.2667 32.9259C9.42363 32.305 9.24135 31.1164 9.86225 30.2714C10.4813 29.4303 11.6661 29.2442 12.5091 29.8613C12.5794 29.9069 17.4156 33.2924 26.5829 33.2924C35.7863 33.2924 40.6092 29.8936 40.6566 29.8594C41.4997 29.248 42.6883 29.4322 43.3054 30.279C43.9206 31.1221 43.7421 32.3031 42.9029 32.9221C42.7453 33.038 40.1383 34.912 35.1938 36.1064L37.4249 39.1729C37.6433 39.4729 37.9907 39.6476 38.3591 39.6476C38.3724 39.6476 38.3838 39.6476 38.3952 39.6457C40.4857 39.5792 49.653 38.0336 53.0139 32.1284C53.1145 31.9537 53.1658 31.7582 53.1658 31.5569C53.1658 20.1756 48.2973 7.00951 45.7985 4.70819ZM18.9878 27.5961C16.8896 27.5961 15.1902 25.4713 15.1902 22.8491C15.1902 20.2269 16.8896 18.1022 18.9878 18.1022C21.0859 18.1022 22.7853 20.2269 22.7853 22.8491C22.7853 25.4713 21.0859 27.5961 18.9878 27.5961ZM34.178 27.5961C32.0798 27.5961 30.3804 25.4713 30.3804 22.8491C30.3804 20.2269 32.0798 18.1022 34.178 18.1022C36.2761 18.1022 37.9756 20.2269 37.9756 22.8491C37.9756 25.4713 36.2761 27.5961 34.178 27.5961Z" fill="#F3F3F2"/>
</svg>
